<?xml version="1.0" encoding="UTF-8"?>
<svg width="141px" height="52px" viewBox="0 0 141 52" version="1.1" xmlns="http://www.w3.org/2000/svg" xmlns:xlink="http://www.w3.org/1999/xlink">
    <!-- Generator: Sketch 39.1 (31720) - http://www.bohemiancoding.com/sketch -->
    <title>logo</title>
    <desc>Created with Sketch.</desc>
    <defs>
        <polyline id="path-1" points="31.0529206 11.084934 34.6666294 15.6400942 3.80297783 43.0321649 0.189269054 38.4770048 31.0529206 11.084934"></polyline>
    </defs>
    <g id="Home_slicing" stroke="none" stroke-width="1" fill="none" fill-rule="evenodd">
        <g id="Artboard" transform="translate(-82.000000, -15.000000)">
            <g id="logo" transform="translate(82.000000, 15.000000)">
                <path d="M2.36789359,12.971504 L9.0698661,12.971504 C9.53667249,12.971504 9.87426848,13.0376293 10.0826642,13.1698819 C10.2910599,13.3021344 10.4786132,13.5181437 10.6453298,13.8179161 L35.2275648,51.21875 L28.5005849,51.21875 C28.0504502,51.21875 27.6878471,51.0953161 27.4127647,50.8484447 C27.1376824,50.6015733 26.9084506,50.3194387 26.7250623,50.0020326 L2.36789359,12.971504 Z" id="X" fill="#4A4A4A"></path>
                <mask id="mask-2" fill="white">
                    <use xlink:href="#path-1"></use>
                </mask>
                <use id="Rectangle-2" fill="#FFFFFF" xlink:href="#path-1"></use>
                <polyline id="Rectangle-Copy-5" fill="#4A4A4A" mask="url(#mask-2)" points="10.6553721 25.8090002 15.6483135 21.8294416 21.2577951 29.7030235 16.2648537 33.6825821 10.6553721 25.8090002"></polyline>
                <polyline id="Rectangle-Copy-8" fill="#4A4A4A" mask="url(#mask-2)" points="17.9205462 21.7192892 22.9134877 17.7397306 28.5229693 25.6133125 23.5300279 29.5928711 17.9205462 21.7192892"></polyline>
                <polyline id="Rectangle-Copy-9" fill="#4A4A4A" mask="url(#mask-2)" points="24.8670352 15.8414275 29.8599766 11.8618689 35.4694582 19.7354508 30.4765168 23.7150094 24.8670352 15.8414275"></polyline>
                <polyline id="Rectangle-Copy-6" fill="#4A4A4A" mask="url(#mask-2)" points="4.34625364 30.2173965 9.33919509 26.2378379 14.9486767 34.1114197 9.95573526 38.0909784 4.34625364 30.2173965"></polyline>
                <polyline id="Rectangle-Copy-7" fill="#4A4A4A" mask="url(#mask-2)" points="-1.2109375 36.0952582 3.78200395 32.1156995 9.39148557 39.9892814 4.39854412 43.9688401 -1.2109375 36.0952582"></polyline>
                <g id="plane_airplane_fly_airport-512.png" transform="translate(37.735884, 0.000000)" fill="#4D4D4D">
                    <g id="Layer_1">
                        <path d="M33.0101128,4.58603623 L33.0101128,4.85654926 C32.9411041,5.4724398 32.4775218,5.64617679 32.0261137,5.82870546 C30.9058271,6.28174716 29.7370357,6.5494198 28.5690773,6.81526648 C26.24463,7.34432234 23.9172352,7.85944677 21.5866366,8.35759652 C21.523715,8.37098691 21.460473,8.3805225 21.3972951,8.39100488 C20.9301246,8.46891263 20.8268998,8.37044588 20.8418293,7.84017272 C20.5538123,8.03737672 20.3988791,8.35096895 20.1698752,8.58915567 C18.8701146,9.94097691 17.641285,11.3656338 16.3708067,12.7477525 C15.6435559,13.5390031 14.9021445,14.3187569 14.2126979,15.147947 C13.8522762,15.5814441 13.4259855,15.8218625 12.8805795,15.8394459 C12.8001654,15.8420158 12.7082178,15.8148968 12.6342112,15.8799552 L12.3138364,15.8799552 C11.9038208,15.7184589 11.8387206,15.5272062 12.0374171,15.0353459 C12.4223794,14.0823285 12.8174016,13.1338422 13.1934575,12.1768347 C13.4223973,11.5942849 13.6685733,11.0195124 13.8924512,10.4347984 C13.9378163,10.3163137 14.0658381,10.1864675 13.9555651,10.0652776 C13.8587478,9.95883077 13.7121443,10.0361975 13.5888641,10.0630459 C12.1155244,10.3829952 10.6384044,10.6823855 9.16320655,10.9923258 C7.9393748,11.2494484 6.71829827,11.5232752 5.48511157,11.7280536 C4.81117114,11.8399784 4.14222855,11.7720796 3.48373017,11.6143705 C2.59943164,11.4025588 1.71769611,11.1781682 0.832244224,10.9715639 C0.516995417,10.8979844 0.270627193,10.7674618 0.203668859,10.4019987 L0.203668859,10.0638574 C0.266590471,9.74586938 0.446000361,9.56192052 0.749459375,9.48523008 C0.966224967,9.43045119 1.17683936,9.34381939 1.38738968,9.26286837 C1.66752541,9.15506893 1.70148514,9.08568233 1.55513793,8.82193213 C1.24245212,8.25858875 0.955908898,7.67962324 0.640660091,7.11803819 C0.359371014,6.61704806 0.38942217,6.35214817 0.785533578,5.9561171 C0.948091753,5.79367402 1.12551532,5.64800276 1.29877401,5.49895008 C1.56462103,5.27023131 1.86961784,5.29410409 2.1765369,5.54919787 C3.07256115,6.29398787 3.97127655,7.03519357 4.8647378,7.78329735 C5.08682162,7.96927506 5.29288669,7.99767893 5.54495759,7.91212918 C6.74322343,7.50541285 7.94949864,7.12615358 9.1525701,6.73566802 C11.4258856,5.99784373 13.7022127,5.2704342 15.9805901,4.550058 C18.2284038,3.83921739 20.4777553,3.13480146 22.7391529,2.47373524 C23.7360312,2.18225745 24.7288727,1.85797996 25.7626581,1.75748437 C27.376386,1.60065444 28.9409043,1.77581163 30.3619588,2.69197163 C30.6723379,2.89201601 31.022059,2.94131701 31.3604389,3.03586132 C31.8177419,3.16374635 32.2474927,3.33917405 32.6259194,3.65459224 C32.9209205,3.90055622 32.9172041,4.26020329 33.0101128,4.58603623 L33.0101128,4.58603623 Z" id="Shape"></path>
                        <path d="M10.4557267,0.122571246 C12.8569358,1.09046687 15.2580809,2.05849774 17.7341296,3.05662319 C16.7271916,3.37684299 15.7984891,3.6729195 14.8693381,3.96750819 C14.278631,4.15477083 13.6851047,4.33256552 13.0977295,4.53058106 C12.9449748,4.58211379 12.8484138,4.56236634 12.7296829,4.44942715 C11.5498066,3.32700096 10.364548,2.21093183 9.17986604,1.09425405 C9.03294215,0.955683749 8.89345096,0.817654475 8.95515515,0.579129612 C9.01724378,0.33898167 9.21004534,0.306181965 9.3987461,0.255731285 C9.53887804,0.218197602 9.69509279,0.231790882 9.81497705,0.122638874 C10.0285389,0.122571246 10.2421648,0.122571246 10.4557267,0.122571246 L10.4557267,0.122571246 Z" id="Shape"></path>
                    </g>
                </g>
                <path d="M127.175164,36.399022 L127.175164,45.3206153 L122.460216,45.3206153 L122.460216,19.9755782 L130.715757,19.9755782 C132.410109,19.9755782 133.876577,20.1742233 135.115207,20.5715196 C136.353836,20.9688159 137.376274,21.5238538 138.182552,22.23665 C138.98883,22.9494462 139.584765,23.8024518 139.970376,24.7956925 C140.355987,25.7889331 140.54879,26.8756389 140.54879,28.0558425 C140.54879,29.2827868 140.344302,30.4074688 139.935321,31.4299224 C139.526339,32.452376 138.912877,33.3316729 138.094914,34.0678395 C137.276951,34.8040061 136.254513,35.3765715 135.027568,35.785553 C133.800624,36.1945344 132.363368,36.399022 130.715757,36.399022 L127.175164,36.399022 Z" id="Path" fill="#E34457"></path>
                <path d="M127.175164,32.7182075 L130.715757,32.7182075 C131.580461,32.7182075 132.334144,32.6101212 132.976829,32.3939453 C133.619514,32.1777694 134.151182,31.8681167 134.571848,31.4649778 C134.992515,31.061839 135.30801,30.5710686 135.518343,29.992652 C135.728677,29.4142354 135.833842,28.7686387 135.833842,28.0558425 C135.833842,27.3781018 135.728677,26.7646388 135.518343,26.2154352 C135.30801,25.6662316 134.992515,25.1988312 134.571848,24.8132201 C134.151182,24.4276091 133.619514,24.1325626 132.976829,23.9280719 C132.334144,23.7235812 131.580461,23.6213373 130.715757,23.6213373 L127.175164,23.6213373 L127.175164,32.7182075 Z" id="Path" fill="#FFFFFF"></path>
                <path d="M119.72749,22.0964285 C119.72749,22.4703544 119.651537,22.8209046 119.49963,23.1480898 C119.347722,23.4752749 119.146156,23.7615576 118.894925,24.0069465 C118.643693,24.2523353 118.348647,24.4480592 118.009776,24.594124 C117.670906,24.7401888 117.308671,24.8132201 116.92306,24.8132201 C116.549134,24.8132201 116.195662,24.7401888 115.862635,24.594124 C115.529607,24.4480592 115.240403,24.2523353 114.995014,24.0069465 C114.749625,23.7615576 114.553901,23.4752749 114.407836,23.1480898 C114.261772,22.8209046 114.18874,22.4703544 114.18874,22.0964285 C114.18874,21.7108174 114.261772,21.3485821 114.407836,21.0097118 C114.553901,20.6708415 114.749625,20.3787163 114.995014,20.1333274 C115.240403,19.8879385 115.529607,19.6922146 115.862635,19.5461498 C116.195662,19.400085 116.549134,19.3270537 116.92306,19.3270537 C117.308671,19.3270537 117.670906,19.400085 118.009776,19.5461498 C118.348647,19.6922146 118.643693,19.8879385 118.894925,20.1333274 C119.146156,20.3787163 119.347722,20.6708415 119.49963,21.0097118 C119.651537,21.3485821 119.72749,21.7108174 119.72749,22.0964285 L119.72749,22.0964285 Z" id="Path" fill="#E34457"></path>
                <polygon id="Path" fill="#E34457" points="119.078965 27.3372072 119.078965 45.3206153 114.749626 45.3206153 114.749626 27.3372072"></polygon>
                <path d="M98.5381082,35.4174715 L98.5381082,45.3206153 L93.8231601,45.3206153 L93.8231601,19.9755782 L101.552871,19.9755782 C103.282278,19.9755782 104.763353,20.1537746 105.99614,20.5101727 C107.228926,20.8665708 108.23968,21.3661049 109.02843,22.00879 C109.81718,22.6514751 110.395587,23.4197645 110.763671,24.313681 C111.131754,25.2075976 111.315793,26.1920596 111.315793,27.2670965 C111.315793,28.1201149 111.190179,28.9263805 110.938948,29.6859175 C110.687716,30.4454544 110.325481,31.1348699 109.852231,31.7541847 C109.378981,32.3734994 108.794731,32.9168523 108.099462,33.3842597 C107.404194,33.851667 106.612534,34.2255873 105.72446,34.5060317 C106.320405,34.844902 106.834545,35.3298299 107.266897,35.9608298 L113.61192,45.3206153 L109.37022,45.3206153 C108.961238,45.3206153 108.613609,45.2388203 108.327322,45.0752277 C108.041035,44.9116351 107.798571,44.677935 107.599923,44.3741202 L102.271506,36.2588005 C102.072858,35.9549858 101.853764,35.7388131 101.614218,35.6102761 C101.374671,35.4817391 101.0212,35.4174715 100.553792,35.4174715 L98.5381082,35.4174715 Z" id="Path" fill="#E34457"></path>
                <path d="M98.5381082,32.0346277 L101.48276,32.0346277 C102.370834,32.0346277 103.144966,31.9236201 103.805179,31.7016016 C104.465391,31.4795831 105.008744,31.1728516 105.435254,30.781398 C105.861763,30.3899443 106.180179,29.9254652 106.390513,29.3879468 C106.600846,28.8504283 106.706011,28.2603354 106.706011,27.6176503 C106.706011,26.33228 106.282429,25.3448968 105.435254,24.6554709 C104.588078,23.9660451 103.293963,23.6213373 101.552871,23.6213373 L98.5381082,23.6213373 L98.5381082,32.0346277 Z" id="Path" fill="#FFFFFF"></path>
                <polygon id="Path" fill="#E34457" points="92.5802877 19.9755782 92.5802877 23.8491973 84.9557433 23.8491973 84.9557433 45.3206153 80.2407952 45.3206153 80.2407952 23.8491973 72.5811954 23.8491973 72.5811954 19.9755782"></polygon>
                <polygon id="Path" fill="#4A4A4A" points="71.4960722 19.9755782 71.4960722 45.3206153 67.1667332 45.3206153 67.1667332 19.9755782"></polygon>
                <path d="M57.4930427,27.0567642 C58.6265056,27.0567642 59.6693926,27.2378819 60.6217351,27.6001226 C61.5740776,27.9623633 62.3949494,28.4911099 63.0843753,29.1863783 C63.7738011,29.8816468 64.3113115,30.7346524 64.6969226,31.7454208 C65.0825337,32.7561892 65.2753363,33.9100838 65.2753363,35.2071392 C65.2753363,35.5343244 65.26073,35.8060008 65.2315171,36.0221767 C65.2023041,36.2383526 65.1497216,36.4077853 65.0737679,36.5304797 C64.9978142,36.6531741 64.8955704,36.7408117 64.7670333,36.793395 C64.6384963,36.8459784 64.4749062,36.8722696 64.2762581,36.8722696 L53.1637038,36.8722696 C53.2922408,38.7185287 53.7888536,40.0739897 54.6535572,40.9386933 C55.5182609,41.8033969 56.6633917,42.2357422 58.0889841,42.2357422 C58.7900952,42.2357422 59.3947944,42.1539472 59.9030999,41.9903546 C60.4114054,41.826762 60.8554357,41.6456444 61.2352042,41.4469962 C61.6149726,41.2483481 61.9479954,41.0672305 62.2342824,40.9036379 C62.5205694,40.7400453 62.7980884,40.6582503 63.0668476,40.6582503 C63.2421253,40.6582503 63.3940305,40.6933053 63.5225675,40.7634164 C63.6511045,40.8335275 63.7621121,40.9328501 63.8555936,41.0613871 L65.1175871,42.638879 C64.6384946,43.1997679 64.1009842,43.6700895 63.5050398,44.0498579 C62.9090954,44.4296264 62.2868687,44.7334366 61.638341,44.9612977 C60.9898133,45.1891588 60.3296103,45.3498277 59.6577122,45.4433092 C58.9858142,45.5367906 58.3343749,45.5835307 57.703375,45.5835307 C56.4530603,45.5835307 55.290402,45.3761218 54.215365,44.9612977 C53.1403281,44.5464737 52.2055274,43.9330107 51.4109349,43.1208905 C50.6163424,42.3087702 49.9911945,41.3038594 49.5354723,40.1061281 C49.0797501,38.9083967 48.8518925,37.520802 48.8518925,35.9433021 C48.8518925,34.7163578 49.0505376,33.5624632 49.4478339,32.4815837 C49.8451301,31.4007042 50.4147743,30.460061 51.1567835,29.6596259 C51.8987926,28.8591908 52.8043808,28.2252791 53.8735751,27.7578718 C54.9427695,27.2904644 56.1492466,27.0567642 57.4930427,27.0567642 L57.4930427,27.0567642 Z" id="Path" fill="#4A4A4A"></path>
                <path d="M57.5806812,30.159165 C56.3186813,30.159165 55.3312981,30.5155578 54.6185019,31.228354 C53.9057057,31.9411502 53.4499903,32.9519035 53.2513422,34.2606441 L61.3841895,34.2606441 C61.3841895,33.6997553 61.308237,33.1710086 61.1563296,32.6743883 C61.0044222,32.177768 60.770722,31.7425014 60.455222,31.3685755 C60.1397221,30.9946496 59.7424318,30.6996032 59.2633392,30.4834273 C58.7842467,30.2672514 58.2233663,30.159165 57.5806812,30.159165 L57.5806812,30.159165 Z" id="Path" fill="#FFFFFF"></path>
                <path d="M47.889463,31.1407156 C47.760926,31.3043082 47.6353122,31.4328433 47.5126177,31.5263247 C47.3899233,31.6198062 47.2117269,31.6665462 46.9780232,31.6665462 C46.7560047,31.6665462 46.5398321,31.5993574 46.3294988,31.4649778 C46.1191655,31.3305982 45.8679378,31.1786931 45.5758082,31.0092579 C45.2836786,30.8398228 44.9360496,30.6879176 44.5329107,30.553538 C44.1297719,30.4191584 43.6302378,30.3519696 43.0342934,30.3519696 C42.2747564,30.3519696 41.608711,30.4892685 41.0361369,30.7638703 C40.4635629,31.0384721 39.9873988,31.4328411 39.6076304,31.9469892 C39.2278619,32.4611373 38.9445004,33.083364 38.7575375,33.813688 C38.5705745,34.544012 38.4770945,35.3707264 38.4770945,36.2938559 C38.4770945,37.252041 38.5793383,38.1050466 38.783829,38.8528984 C38.9883197,39.6007502 39.2833662,40.2288194 39.6689773,40.7371249 C40.0545883,41.2454304 40.5219887,41.6310357 41.0711923,41.8939523 C41.620396,42.1568689 42.2397014,42.2883253 42.9291273,42.2883253 C43.6185531,42.2883253 44.1765123,42.203609 44.6030215,42.0341738 C45.0295307,41.8647386 45.3888447,41.6777785 45.6809743,41.4732878 C45.9731039,41.2687971 46.2272529,41.0818369 46.4434288,40.9124018 C46.6596047,40.7429666 46.9020686,40.6582503 47.1708278,40.6582503 C47.5213833,40.6582503 47.784296,40.7926279 47.9595738,41.0613871 L49.2040396,42.638879 C48.7249471,43.1997679 48.2049642,43.6700895 47.6440754,44.0498579 C47.0831866,44.4296264 46.5018574,44.7334366 45.9000704,44.9612977 C45.2982834,45.1891588 44.6760567,45.3498277 44.0333716,45.4433092 C43.3906865,45.5367906 42.7538535,45.5835307 42.1228536,45.5835307 C41.0127611,45.5835307 39.9669529,45.3761218 38.9853974,44.9612977 C38.003842,44.5464737 37.1479151,43.9417745 36.4175911,43.147182 C35.6872671,42.3525895 35.1088592,41.3798125 34.68235,40.2288219 C34.2558408,39.0778313 34.0425894,37.7661891 34.0425894,36.2938559 C34.0425894,34.9734301 34.2324707,33.7494255 34.6122392,32.6218052 C34.9920077,31.494185 35.5499669,30.5184868 36.2861334,29.6946813 C37.0223,28.8708758 37.9337307,28.2252791 39.0204528,27.7578718 C40.1071749,27.2904644 41.3574708,27.0567642 42.7713781,27.0567642 C44.1151742,27.0567642 45.2924388,27.2729369 46.3032072,27.7052887 C47.3139757,28.1376405 48.2224851,28.756946 49.0287628,29.5632236 L47.889463,31.1407156 Z" id="Path" fill="#4A4A4A"></path>
            </g>
        </g>
    </g>
</svg>